# xmcd CD database file
#
# Track frame offsets:
#	150
#	19712
#	32205
#	58057
#	75647
#	97862
#	112432
#	125762
#	133087
#	148240
#	160572
#	171982
#	195742
#	203015
#
# Disc length: 2950 seconds
#
# Revision: 7
# Processed by: cddbd v1.5.2PL0 Copyright (c) Steve Scherf et al.
# Submitted via: CD2WAV32(JP) R3.22
#
DISCID=ca0b840e
DTITLE=玉置浩二 - JUNK LAND
DYEAR=1997
DGENRE=J-pop
TTITLE0=太陽さん
TTITLE1=闇をロマンスにして
TTITLE2=NO GAME
TTITLE3=さよならにGOOD BYE
TTITLE4=JUNK LAND
TTITLE5=ラストショー
TTITLE6=スイスイ
TTITLE7=我が愛しのフラッグ〈Instrumental〉
TTITLE8=風にさらわれて
TTITLE9=CHU CHU
TTITLE10=金持ちさんちの貧乏人
TTITLE11=MR. LONELY
TTITLE12=おやすみチャチ〈Instrumental〉
TTITLE13=しあわせのランプ
EXTD=
EXTT0=
EXTT1=
EXTT2=
EXTT3=
EXTT4=
EXTT5=
EXTT6=
EXTT7=
EXTT8=
EXTT9=
EXTT10=
EXTT11=
EXTT12=
EXTT13=
PLAYORDER=
